<mxfile host="Electron" modified="2024-09-23T08:23:58.700Z" agent="Mozilla/5.0 (Windows NT 10.0; Win64; x64) AppleWebKit/537.36 (KHTML, like Gecko) draw.io/24.5.1 Chrome/124.0.6367.207 Electron/30.0.6 Safari/537.36" etag="xRVvkd0e7tN1jFLIjAup" version="24.5.1" type="device">
  <diagram id="C5RBs43oDa-KdzZeNtuy" name="Page-1">
    <mxGraphModel dx="2113" dy="1983" grid="1" gridSize="10" guides="1" tooltips="1" connect="1" arrows="1" fold="1" page="1" pageScale="1" pageWidth="827" pageHeight="1169" math="0" shadow="0">
      <root>
        <mxCell id="WIyWlLk6GJQsqaUBKTNV-0" />
        <mxCell id="WIyWlLk6GJQsqaUBKTNV-1" parent="WIyWlLk6GJQsqaUBKTNV-0" />
        <mxCell id="SeGfZkC_9oYl4kikJTZ3-3" style="edgeStyle=orthogonalEdgeStyle;rounded=0;orthogonalLoop=1;jettySize=auto;html=1;" edge="1" parent="WIyWlLk6GJQsqaUBKTNV-1" source="Rj-X6KRs2aUbJNZ3G0l7-1">
          <mxGeometry relative="1" as="geometry">
            <mxPoint x="520" y="170" as="targetPoint" />
          </mxGeometry>
        </mxCell>
        <mxCell id="Rj-X6KRs2aUbJNZ3G0l7-1" value="Generate Bit Matrix" style="rounded=1;whiteSpace=wrap;html=1;fontSize=12;glass=0;strokeWidth=1;shadow=0;fillColor=#6a00ff;fontColor=#ffffff;strokeColor=#3700CC;" parent="WIyWlLk6GJQsqaUBKTNV-1" vertex="1">
          <mxGeometry x="170" y="150" width="120" height="40" as="geometry" />
        </mxCell>
        <mxCell id="SeGfZkC_9oYl4kikJTZ3-4" style="edgeStyle=orthogonalEdgeStyle;rounded=0;orthogonalLoop=1;jettySize=auto;html=1;" edge="1" parent="WIyWlLk6GJQsqaUBKTNV-1" source="Rj-X6KRs2aUbJNZ3G0l7-4">
          <mxGeometry relative="1" as="geometry">
            <mxPoint x="520" y="170" as="targetPoint" />
            <Array as="points">
              <mxPoint x="490" y="230" />
              <mxPoint x="490" y="170" />
            </Array>
          </mxGeometry>
        </mxCell>
        <mxCell id="Rj-X6KRs2aUbJNZ3G0l7-4" value="Generate Voxel Shader Buffer" style="rounded=1;whiteSpace=wrap;html=1;fontSize=12;glass=0;strokeWidth=1;shadow=0;fillColor=#6a00ff;fontColor=#ffffff;strokeColor=#3700CC;" parent="WIyWlLk6GJQsqaUBKTNV-1" vertex="1">
          <mxGeometry x="170" y="210" width="120" height="40" as="geometry" />
        </mxCell>
        <mxCell id="Rj-X6KRs2aUbJNZ3G0l7-29" style="edgeStyle=orthogonalEdgeStyle;rounded=0;orthogonalLoop=1;jettySize=auto;html=1;entryX=0;entryY=0.5;entryDx=0;entryDy=0;" parent="WIyWlLk6GJQsqaUBKTNV-1" source="Rj-X6KRs2aUbJNZ3G0l7-7" target="Rj-X6KRs2aUbJNZ3G0l7-30" edge="1">
          <mxGeometry relative="1" as="geometry">
            <mxPoint x="320" y="100" as="targetPoint" />
            <Array as="points">
              <mxPoint x="320" y="100" />
              <mxPoint x="320" y="100" />
            </Array>
          </mxGeometry>
        </mxCell>
        <mxCell id="Rj-X6KRs2aUbJNZ3G0l7-7" value="Calculate Local Sun Light Data" style="rounded=1;whiteSpace=wrap;html=1;fontSize=12;glass=0;strokeWidth=1;shadow=0;fillColor=#6a00ff;fontColor=#ffffff;strokeColor=#3700CC;" parent="WIyWlLk6GJQsqaUBKTNV-1" vertex="1">
          <mxGeometry x="170" y="80" width="120" height="40" as="geometry" />
        </mxCell>
        <mxCell id="Rj-X6KRs2aUbJNZ3G0l7-12" value="Generate Mesh" style="rounded=1;whiteSpace=wrap;html=1;fontSize=12;glass=0;strokeWidth=1;shadow=0;fillColor=#6a00ff;fontColor=#ffffff;strokeColor=#3700CC;" parent="WIyWlLk6GJQsqaUBKTNV-1" vertex="1">
          <mxGeometry x="520" y="150" width="120" height="40" as="geometry" />
        </mxCell>
        <mxCell id="SeGfZkC_9oYl4kikJTZ3-24" style="edgeStyle=orthogonalEdgeStyle;rounded=0;orthogonalLoop=1;jettySize=auto;html=1;entryX=0;entryY=0.5;entryDx=0;entryDy=0;" edge="1" parent="WIyWlLk6GJQsqaUBKTNV-1" source="Rj-X6KRs2aUbJNZ3G0l7-21" target="SeGfZkC_9oYl4kikJTZ3-19">
          <mxGeometry relative="1" as="geometry" />
        </mxCell>
        <mxCell id="Rj-X6KRs2aUbJNZ3G0l7-21" value="Generate Voxel Data" style="rounded=1;whiteSpace=wrap;html=1;fontSize=12;glass=0;strokeWidth=1;shadow=0;fillColor=#6a00ff;fontColor=#ffffff;strokeColor=#3700CC;" parent="WIyWlLk6GJQsqaUBKTNV-1" vertex="1">
          <mxGeometry x="-220" y="210" width="120" height="40" as="geometry" />
        </mxCell>
        <mxCell id="Rj-X6KRs2aUbJNZ3G0l7-23" style="edgeStyle=orthogonalEdgeStyle;rounded=0;orthogonalLoop=1;jettySize=auto;html=1;entryX=0;entryY=0.5;entryDx=0;entryDy=0;exitX=0.5;exitY=0;exitDx=0;exitDy=0;" parent="WIyWlLk6GJQsqaUBKTNV-1" source="Rj-X6KRs2aUbJNZ3G0l7-22" target="SeGfZkC_9oYl4kikJTZ3-27" edge="1">
          <mxGeometry relative="1" as="geometry">
            <mxPoint x="-310" y="100" as="targetPoint" />
            <mxPoint x="-309.9655172413793" y="150.03448275862092" as="sourcePoint" />
          </mxGeometry>
        </mxCell>
        <mxCell id="SeGfZkC_9oYl4kikJTZ3-11" value="Yes" style="edgeLabel;html=1;align=center;verticalAlign=middle;resizable=0;points=[];" vertex="1" connectable="0" parent="Rj-X6KRs2aUbJNZ3G0l7-23">
          <mxGeometry x="-0.6725" y="-2" relative="1" as="geometry">
            <mxPoint as="offset" />
          </mxGeometry>
        </mxCell>
        <mxCell id="SeGfZkC_9oYl4kikJTZ3-10" style="edgeStyle=orthogonalEdgeStyle;rounded=0;orthogonalLoop=1;jettySize=auto;html=1;entryX=0;entryY=0.5;entryDx=0;entryDy=0;" edge="1" parent="WIyWlLk6GJQsqaUBKTNV-1" source="Rj-X6KRs2aUbJNZ3G0l7-22" target="Rj-X6KRs2aUbJNZ3G0l7-21">
          <mxGeometry relative="1" as="geometry" />
        </mxCell>
        <mxCell id="SeGfZkC_9oYl4kikJTZ3-12" value="No" style="edgeLabel;html=1;align=center;verticalAlign=middle;resizable=0;points=[];" vertex="1" connectable="0" parent="SeGfZkC_9oYl4kikJTZ3-10">
          <mxGeometry x="0.144" relative="1" as="geometry">
            <mxPoint as="offset" />
          </mxGeometry>
        </mxCell>
        <mxCell id="Rj-X6KRs2aUbJNZ3G0l7-22" value="Is Chunk&lt;div&gt;Serialized&lt;/div&gt;" style="rhombus;whiteSpace=wrap;html=1;" parent="WIyWlLk6GJQsqaUBKTNV-1" vertex="1">
          <mxGeometry x="-350" y="190" width="80" height="80" as="geometry" />
        </mxCell>
        <mxCell id="SeGfZkC_9oYl4kikJTZ3-23" style="edgeStyle=orthogonalEdgeStyle;rounded=0;orthogonalLoop=1;jettySize=auto;html=1;entryX=0;entryY=0.5;entryDx=0;entryDy=0;" edge="1" parent="WIyWlLk6GJQsqaUBKTNV-1" source="Rj-X6KRs2aUbJNZ3G0l7-24" target="SeGfZkC_9oYl4kikJTZ3-19">
          <mxGeometry relative="1" as="geometry">
            <Array as="points">
              <mxPoint x="-60" y="100" />
              <mxPoint x="-60" y="170" />
            </Array>
          </mxGeometry>
        </mxCell>
        <mxCell id="Rj-X6KRs2aUbJNZ3G0l7-24" value="Load Voxel Data" style="rounded=1;whiteSpace=wrap;html=1;fontSize=12;glass=0;strokeWidth=1;shadow=0;fillColor=#6a00ff;fontColor=#ffffff;strokeColor=#3700CC;" parent="WIyWlLk6GJQsqaUBKTNV-1" vertex="1">
          <mxGeometry x="-280" y="90" width="120" height="40" as="geometry" />
        </mxCell>
        <mxCell id="Rj-X6KRs2aUbJNZ3G0l7-31" style="edgeStyle=orthogonalEdgeStyle;rounded=0;orthogonalLoop=1;jettySize=auto;html=1;entryX=0;entryY=0.5;entryDx=0;entryDy=0;" parent="WIyWlLk6GJQsqaUBKTNV-1" source="Rj-X6KRs2aUbJNZ3G0l7-30" target="Rj-X6KRs2aUbJNZ3G0l7-12" edge="1">
          <mxGeometry relative="1" as="geometry" />
        </mxCell>
        <mxCell id="Rj-X6KRs2aUbJNZ3G0l7-30" value="Calculate Neighboring Sun light influence" style="rounded=1;whiteSpace=wrap;html=1;fontSize=12;glass=0;strokeWidth=1;shadow=0;fillColor=#6a00ff;fontColor=#ffffff;strokeColor=#3700CC;" parent="WIyWlLk6GJQsqaUBKTNV-1" vertex="1">
          <mxGeometry x="340" y="80" width="120" height="40" as="geometry" />
        </mxCell>
        <mxCell id="Rj-X6KRs2aUbJNZ3G0l7-32" value="" style="endArrow=none;dashed=1;html=1;dashPattern=1 3;strokeWidth=2;rounded=0;" parent="WIyWlLk6GJQsqaUBKTNV-1" edge="1">
          <mxGeometry width="50" height="50" relative="1" as="geometry">
            <mxPoint x="309.66" y="100" as="sourcePoint" />
            <mxPoint x="309.66" y="30" as="targetPoint" />
          </mxGeometry>
        </mxCell>
        <mxCell id="Rj-X6KRs2aUbJNZ3G0l7-34" value="Wait for all neighbors to finish local light calculation" style="shape=parallelogram;perimeter=parallelogramPerimeter;whiteSpace=wrap;html=1;fixedSize=1;" parent="WIyWlLk6GJQsqaUBKTNV-1" vertex="1">
          <mxGeometry x="250" y="-20" width="120" height="60" as="geometry" />
        </mxCell>
        <mxCell id="SeGfZkC_9oYl4kikJTZ3-20" style="edgeStyle=orthogonalEdgeStyle;rounded=0;orthogonalLoop=1;jettySize=auto;html=1;entryX=0;entryY=0.5;entryDx=0;entryDy=0;" edge="1" parent="WIyWlLk6GJQsqaUBKTNV-1" source="SeGfZkC_9oYl4kikJTZ3-19" target="Rj-X6KRs2aUbJNZ3G0l7-1">
          <mxGeometry relative="1" as="geometry" />
        </mxCell>
        <mxCell id="SeGfZkC_9oYl4kikJTZ3-21" style="edgeStyle=orthogonalEdgeStyle;rounded=0;orthogonalLoop=1;jettySize=auto;html=1;entryX=0;entryY=0.5;entryDx=0;entryDy=0;" edge="1" parent="WIyWlLk6GJQsqaUBKTNV-1" source="SeGfZkC_9oYl4kikJTZ3-19" target="Rj-X6KRs2aUbJNZ3G0l7-7">
          <mxGeometry relative="1" as="geometry" />
        </mxCell>
        <mxCell id="SeGfZkC_9oYl4kikJTZ3-22" style="edgeStyle=orthogonalEdgeStyle;rounded=0;orthogonalLoop=1;jettySize=auto;html=1;entryX=0;entryY=0.5;entryDx=0;entryDy=0;" edge="1" parent="WIyWlLk6GJQsqaUBKTNV-1" source="SeGfZkC_9oYl4kikJTZ3-19" target="Rj-X6KRs2aUbJNZ3G0l7-4">
          <mxGeometry relative="1" as="geometry" />
        </mxCell>
        <mxCell id="SeGfZkC_9oYl4kikJTZ3-19" value="Manage Chunk Generation" style="rounded=1;whiteSpace=wrap;html=1;fontSize=12;glass=0;strokeWidth=1;shadow=0;fillColor=#6a00ff;fontColor=#ffffff;strokeColor=#3700CC;" vertex="1" parent="WIyWlLk6GJQsqaUBKTNV-1">
          <mxGeometry x="-20" y="150" width="120" height="40" as="geometry" />
        </mxCell>
        <mxCell id="SeGfZkC_9oYl4kikJTZ3-26" style="edgeStyle=orthogonalEdgeStyle;rounded=0;orthogonalLoop=1;jettySize=auto;html=1;entryX=0;entryY=0.5;entryDx=0;entryDy=0;" edge="1" parent="WIyWlLk6GJQsqaUBKTNV-1" source="SeGfZkC_9oYl4kikJTZ3-25" target="Rj-X6KRs2aUbJNZ3G0l7-22">
          <mxGeometry relative="1" as="geometry" />
        </mxCell>
        <mxCell id="SeGfZkC_9oYl4kikJTZ3-25" value="Voxel World Generator" style="rounded=1;whiteSpace=wrap;html=1;fontSize=12;glass=0;strokeWidth=1;shadow=0;fillColor=#6a00ff;fontColor=#ffffff;strokeColor=#3700CC;" vertex="1" parent="WIyWlLk6GJQsqaUBKTNV-1">
          <mxGeometry x="-533" y="210" width="120" height="40" as="geometry" />
        </mxCell>
        <mxCell id="SeGfZkC_9oYl4kikJTZ3-27" value="Load Chunk Metadata" style="rounded=1;whiteSpace=wrap;html=1;fontSize=12;glass=0;strokeWidth=1;shadow=0;fillColor=#6a00ff;fontColor=#ffffff;strokeColor=#3700CC;" vertex="1" parent="WIyWlLk6GJQsqaUBKTNV-1">
          <mxGeometry x="-280" y="20" width="120" height="40" as="geometry" />
        </mxCell>
        <mxCell id="SeGfZkC_9oYl4kikJTZ3-28" value="Load Voxel Data" style="rounded=1;whiteSpace=wrap;html=1;fontSize=12;glass=0;strokeWidth=1;shadow=0;fillColor=#6a00ff;fontColor=#ffffff;strokeColor=#3700CC;" vertex="1" parent="WIyWlLk6GJQsqaUBKTNV-1">
          <mxGeometry x="-60" y="30" width="120" height="40" as="geometry" />
        </mxCell>
      </root>
    </mxGraphModel>
  </diagram>
</mxfile>
